<?xml version="1.0" encoding="UTF-8"?>
<svg xmlns="http://www.w3.org/2000/svg" xmlns:xlink="http://www.w3.org/1999/xlink" xmlns:svgjs="http://svgjs.com/svgjs" version="1.1" width="512" height="512" x="0" y="0" viewBox="0 0 486.912 486" style="enable-background:new 0 0 512 512" xml:space="preserve" class="">
  <g>
    <path xmlns="http://www.w3.org/2000/svg" d="m313.054688 372.300781h-139.199219c-12.128907 0-22.398438 9.5-22.398438 21.636719v6.363281h184v-6.363281c0-12.136719-10.273437-21.636719-22.402343-21.636719zm0 0" fill="#744247" data-original="#000000" style="" class=""/>
    <path xmlns="http://www.w3.org/2000/svg" d="m281.054688 327.300781h-75.199219c-12.128907 0-22.398438 9.5-22.398438 21.636719v7.363281h120v-7.363281c0-12.136719-10.273437-21.636719-22.402343-21.636719zm0 0" fill="#744247" data-original="#000000" style="" class=""/>
    <path xmlns="http://www.w3.org/2000/svg" d="m480.222656 252.777344-58.265625-124.808594 28.390625 8.148438c4.242188 1.199218 8.65625-1.253907 9.871094-5.492188 1.214844-4.234375-1.222656-8.65625-5.457031-9.886719l-169.632813-48.675781c.097656-1.203125.167969-2.410156.167969-3.636719.003906-19.339843-13.25-36.160156-32.050781-40.679687-18.804688-4.523438-38.257813 4.4375-47.042969 21.667968l-169.636719-48.675781c-4.222656-1.152343-8.585937 1.304688-9.792968 5.511719-1.203126 4.207031 1.191406 8.601562 5.382812 9.867188l35.417969 10.164062-61.441407 131.609375c-3.59375.863281-6.12890575 4.074219-6.132812 7.769531-.0117188 31.65625 19.070312 60.195313 48.328125 72.28125 29.257813 12.085938 62.917969 5.335938 85.253906-17.097656 14.878907-14.507812 23.289063-34.398438 23.328125-55.183594-.003906-3.90625-2.832031-7.242187-6.6875-7.882812l-58.105468-124.453125 109.667968 31.464843c-.101562 1.203126-.167968 2.410157-.167968 3.636719.027343 20.011719 14.199218 37.210938 33.839843 41.0625v208.8125h16v-208.8125c12.613281-2.480469 23.390625-10.609375 29.25-22.050781l116.992188 33.570312-61.566407 131.882813c-3.59375.863281-6.128906 4.074219-6.132812 7.769531-.011719 31.65625 19.070312 60.195313 48.328125 72.28125 29.257813 12.085938 62.917969 5.335938 85.253906-17.097656 14.878907-14.507812 23.289063-34.398438 23.328125-55.183594-.003906-3.90625-2.832031-7.242187-6.6875-7.882812zm-347.710937-95.476563h-108.617188l54.308594-116.320312zm221.382812 95 54.308594-116.320312 54.308594 116.320312zm0 0" fill="#744247" data-original="#000000" style="" class=""/>
  </g>
</svg>
