<?xml version="1.0" encoding="utf-8"?>
<!-- Generator: Adobe Illustrator 18.1.1, SVG Export Plug-In . SVG Version: 6.00 Build 0)  -->
<svg version="1.1" id="Layer_1" xmlns="http://www.w3.org/2000/svg" xmlns:xlink="http://www.w3.org/1999/xlink" x="0px" y="0px"
	 viewBox="0 0 720 480" enable-background="new 0 0 720 480" xml:space="preserve">
<g>
	<path fill="#58BE87" d="M225.6,41.2l-8.2,78.6c-0.6,6-5.6,10.5-11.6,10.5h-55.1c-6,0-11,4.6-11.6,10.5l-18.9,180.8
		c-0.7,7,4.7,13,11.6,13H182c7,0,12.4,6.1,11.6,13l-8.4,78.6c-0.6,6-5.7,10.5-11.6,10.5H19.4c-6.9,0-12.4-6.1-11.6-13L48.2,38.8
		c0.6-6,5.6-10.5,11.6-10.5H214C220.9,28.2,226.3,34.3,225.6,41.2z"/>
	<path fill="#58BE87" d="M545.8,30.9h155c6.9,0,12.2,5.9,11.5,12.8l-40.6,384.2c-0.6,5.9-5.6,10.3-11.5,10.3H505.2
		c-6.9,0-12.2-6-11.5-12.8l8.5-78.7c0.6-5.9,5.6-10.3,11.5-10.3h55.6c5.9,0,10.9-4.5,11.5-10.3l19-180.6c0.7-6.8-4.6-12.7-11.5-12.7
		h-50.7c-6.8,0-12.2-5.9-11.5-12.7l8.3-78.7C534.9,35.4,539.9,30.9,545.8,30.9z"/>
	<g>
		<path fill="#F05D8A" d="M306.4,437.3H203.3c-5,0-8.6-4.2-7-8.3l92.1-248.6c1-2.7,3.9-4.5,7.2-4.4l101.6,1.4c4.9,0.1,8.4,4.2,7,8.2
			l-43.8,123.9l-46.9,123.4C312.4,435.5,309.6,437.3,306.4,437.3z"/>
		<path fill="#F05D8A" d="M302.5,246.5l31.5-65.4c1.5-3.2,5.1-5.2,9.1-5.2l0,0c4.2,0,8-2.3,9.3-5.8l53.3-136
			c1.4-3.5,5.1-5.8,9.3-5.8h97.9c6.7,0,11.5,5.6,9.4,11.1l-80.7,213.1c-1.3,3.5-5.1,5.9-9.4,5.9H311.6
			C304.5,258.3,299.8,252.1,302.5,246.5z"/>
	</g>
</g>
</svg>
